<?xml version="1.0" encoding="UTF-8"?>
<!DOCTYPE svg  PUBLIC '-//W3C//DTD SVG 1.1//EN'  'http://www.w3.org/Graphics/SVG/1.1/DTD/svg11.dtd'>
<svg clip-rule="evenodd" fill-rule="evenodd" image-rendering="optimizeQuality" shape-rendering="geometricPrecision" text-rendering="geometricPrecision" version="1.1" viewBox="0 0 437 130" xmlns="http://www.w3.org/2000/svg">
<path d="m163.5 6.5c11.386-0.93149 20.886 2.7352 28.5 11 5.061 9.8561 4.561 19.356-1.5 28.5 11.716 8.1272 16.216 19.294 13.5 33.5-2.404 8.7373-7.904 14.571-16.5 17.5-15.946 1.6048-31.946 1.9381-48 1-0.833-0.8333-1.667-1.6667-2.5-2.5-0.667-28.667-0.667-57.333 0-86l1.5-1.5c8.51-0.17058 16.843-0.67058 25-1.5zm-13 13c7.341-0.1663 14.674 3e-4 22 0.5 8.355 3.7219 10.855 9.8886 7.5 18.5-1.663 2.4167-3.829 4.25-6.5 5.5-7.613 1.2616-15.28 1.7616-23 1.5v-26zm21 37c15.685 0.1736 21.852 7.8403 18.5 23-2.481 3.8144-5.981 5.9811-10.5 6.5-9.661 0.4998-19.328 0.6665-29 0.5v-29c7.187 0.3245 14.187-0.0088 21-1z" fill="#023b4c" opacity=".942"/>
<path d="m69.5 8.5c31.19-1.0078 50.023 13.659 56.5 44 1.422 24.657-9.078 42.157-31.5 52.5 11.902 2.483 23.902 4.15 36 5 2.948 4.341 2.615 8.341-1 12-29.277 1.571-56.277-5.429-81-21-24.811-20.366-29.311-44.533-13.5-72.5 8.9086-11.202 20.409-17.869 34.5-20zm-1 14c30.09-0.7422 43.923 13.924 41.5 44-7.581 22.71-23.081 31.21-46.5 25.5-17.785-8.6362-24.951-22.803-21.5-42.5 3.7087-14.208 12.542-23.208 26.5-27z" fill="#023b4c" opacity=".936"/>
<path d="m242.5 28.5c25.528-0.6398 37.695 11.694 36.5 37-0.833 0.8333-1.667 1.6667-2.5 2.5-21.331 0.5-42.664 0.6666-64 0.5-0.987-14.522 4.347-26.022 16-34.5 4.517-2.5545 9.184-4.3879 14-5.5zm0 12c13.043-1.334 20.71 4.3327 23 17-12.647 0.8488-25.313 1.1821-38 1 1.414-9.0738 6.414-15.074 15-18z" fill="#023b4c" opacity=".939"/>
<path d="m293.5 28.5c5.826-1.0113 9.326 1.322 10.5 7 11.249-8.2916 23.082-9.1249 35.5-2.5 1.851 1.6837 3.518 3.5171 5 5.5 8.715-9.2901 19.381-12.457 32-9.5 9.205 3.8853 15.039 10.719 17.5 20.5 4.104 16.892 1.437 32.558-8 47-9.261 3.921-13.261 0.9206-12-9 7.813-8.9149 10.479-19.248 8-31-4.645-14.409-13.812-18.576-27.5-12.5-2.469 2.4411-4.302 5.2744-5.5 8.5-0.333 14.333-0.667 28.667-1 43-3.183 2.0234-6.683 2.5234-10.5 1.5-1.201-0.9025-2.035-2.0692-2.5-3.5-0.333-13.667-0.667-27.333-1-41-4.723-11.102-12.556-13.936-23.5-8.5-2.967 2.1005-4.8 4.9338-5.5 8.5-0.333 14-0.667 28-1 42-2.981 4.1959-6.814 5.0293-11.5 2.5-0.626-0.7504-1.126-1.5838-1.5-2.5-0.667-21-0.667-42 0-63 1.045-0.8734 1.878-1.8734 2.5-3z" fill="#023b4c" opacity=".936"/>
<path d="m225.5 78.5v6c-1.536 2.5922-3.869 3.5922-7 3-1.562-0.2329-2.895-0.8995-4-2-2.131-5.4011-0.297-8.7345 5.5-10 2.399 0.1132 4.232 1.1132 5.5 3z" fill="#289da8" opacity=".921"/>
<path d="m275.5 87.5h-5c-1.562-0.2329-2.895-0.8995-4-2v-6c-0.086-0.9959 0.248-1.8292 1-2.5 5.564-2.3836 9.23-0.717 11 5-0.113 2.3987-1.113 4.2321-3 5.5z" fill="#5fca6f" opacity=".925"/>
<path d="m225.5 78.5c1.303 1.6423 2.636 3.3089 4 5-0.986 4.47-1.319 9.1367-1 14-0.992 0.1716-1.658-0.1618-2-1 0.317-4.2016-0.017-8.2016-1-12v-6z" fill="#32c1d7" opacity=".894"/>
<path d="m264.5 81.5v15c-0.79 0.9013-1.79 1.5679-3 2v-14c0.667-1.3333 1.667-2.3333 3-3z" fill="#14bb80" opacity=".925"/>
<path d="m266.5 79.5v6 10c-0.342 0.8382-1.008 1.1716-2 1v-15c0.333-1 1-1.6667 2-2z" fill="#15bb79" opacity=".992"/>
<path d="m229.5 83.5c1.21 0.4321 2.21 1.0987 3 2v14c-1.495-0.4887-2.829-1.1554-4-2-0.319-4.8633 0.014-9.53 1-14z" fill="#2fc3d2" opacity=".933"/>
<path d="m232.5 85.5c1.109 0.0569 2.109 0.3902 3 1v13h-3v-14z" fill="#2dc3cb" opacity=".942"/>
<path d="m261.5 84.5v14c-1.208 0.7341-2.541 1.0674-4 1v-13c1.014-1.1737 2.347-1.8404 4-2z" fill="#17bc8a" opacity=".929"/>
<path d="m235.5 86.5c1.109 0.0569 2.109 0.3902 3 1v13c-1.291 0.237-2.291-0.096-3-1v-13z" fill="#2ac2c4" opacity=".915"/>
<path d="m254.5 87.5c0.709-0.904 1.709-1.2373 3-1v13c-0.667 0.3333-1.333 0.667-2 1 0.318-4.5323-0.015-8.8656-1-13z" fill="#19bd92" opacity=".913"/>
<path d="m214.5 85.5c1.105 1.1005 2.438 1.7671 4 2 1.068 0.9345 2.401 1.2678 4 1v6c-3.403-2.3998-6.07-5.3998-8-9z" fill="#3bc5e7" opacity=".807"/>
<path d="m225.5 84.5c0.983 3.7984 1.317 7.7984 1 12-1.653-0.1596-2.986-0.8263-4-2v-6c-1.599 0.2678-2.932-0.0655-4-1 3.131 0.5922 5.464-0.4078 7-3z" fill="#35c2dd" opacity=".925"/>
<path d="m238.5 87.5h3v13h-3v-13z" fill="#27c1bd" opacity=".949"/>
<path d="m241.5 87.5h2v13h-2v-13z" fill="#24c1b6" opacity=".942"/>
<path d="m243.5 87.5c1.542 0.8007 3.208 1.134 5 1v12h-5v-13z" fill="#22bfaf" opacity=".978"/>
<path d="m252.5 87.5v13h-4v-12c1.068-0.9345 2.401-1.2678 4-1z" fill="#1dbea1" opacity=".945"/>
<path d="m252.5 87.5h2c0.985 4.1344 1.318 8.4677 1 13h-3v-13z" fill="#1abe98" opacity=".952"/>
<path d="m266.5 85.5c1.105 1.1005 2.438 1.7671 4 2 0.801 1.5418 1.134 3.2085 1 5-1.399 1.3897-3.066 2.3897-5 3v-10z" fill="#11ba6f" opacity=".882"/>
<path d="m270.5 87.5h5c-0.58 2.2488-1.913 3.9154-4 5 0.134-1.7915-0.199-3.4582-1-5z" fill="#1bba65" opacity=".531"/>
</svg>
