<?xml version="1.0" encoding="UTF-8"?>
<!DOCTYPE svg  PUBLIC '-//W3C//DTD SVG 1.1//EN'  'http://www.w3.org/Graphics/SVG/1.1/DTD/svg11.dtd'>
<svg clip-rule="evenodd" fill-rule="evenodd" image-rendering="optimizeQuality" shape-rendering="geometricPrecision" text-rendering="geometricPrecision" version="1.1" viewBox="0 0 437 174" xmlns="http://www.w3.org/2000/svg">
<path d="m146.5 30.5c12.005-0.1665 24.005 1e-4 36 0.5 16.638 4.7679 22.804 15.601 18.5 32.5-0.914 2.1641-2.081 4.1641-3.5 6 14.31 11.375 17.477 25.375 9.5 42-5.138 5.986-11.638 9.486-19.5 10.5-13.667 0.667-27.333 0.667-41 0l-2.5-2.5c-0.736-28.334-1.069-56.668-1-85 0.69-1.8502 1.856-3.1836 3.5-4zm11 12c7.738-0.3561 15.405 0.1439 23 1.5 8.64 5.1947 10.14 12.028 4.5 20.5-1.419 0.9601-2.919 1.7935-4.5 2.5-7.915 1.4011-15.915 1.9011-24 1.5-0.303-8.7511 0.03-17.418 1-26zm0 38c10.745-0.4288 21.412 0.0712 32 1.5 5.737 2.7863 8.737 7.453 9 14-0.286 5.614-2.952 9.614-8 12-10.898 1.867-21.898 2.7-33 2.5-0.842-10.07-0.842-20.07 0-30z" fill="#fefffe" opacity=".944"/>
<path d="m72.5 32.5c22.593-2.8739 40.427 4.7928 53.5 23 12.503 25.799 8.003 47.965-13.5 66.5-3.538 2.269-7.205 4.269-11 6 3.779 1.625 7.779 2.625 12 3 7.343 0.556 14.677 1.223 22 2 4.821 3.601 5.154 7.601 1 12-32.025 2.214-61.025-6.119-87-25-19.746-20.876-22.246-43.71-7.5-68.5 8.1183-9.7999 18.285-16.133 30.5-19zm5 13c27.932 0.7655 41.099 15.099 39.5 43-5.441 20.969-18.941 30.469-40.5 28.5-16.856-3.856-26.356-14.356-28.5-31.5-1.3869-14.527 3.7798-26.027 15.5-34.5 4.5171-2.5545 9.1838-4.3879 14-5.5z" fill="#fefffe" opacity=".94"/>
<path d="m301.5 51.5c5.593-0.2397 8.427 2.427 8.5 8 11.068-8.946 22.901-10.113 35.5-3.5 2.209 1.8734 4.042 4.04 5.5 6.5 7.796-9.0444 17.63-12.544 29.5-10.5 12.935 3.9849 20.102 12.818 21.5 26.5 2.356 14.889-0.644 28.556-9 41-6.672 3.893-11.172 2.226-13.5-5 2.484-4.296 4.984-8.629 7.5-13 5.013-12.982 2.847-24.482-6.5-34.5-8.364-4.1154-15.864-2.9488-22.5 3.5-0.862 1.587-1.529 3.2536-2 5-0.333 14-0.667 28-1 42-3.866 4.916-8.199 5.249-13 1-0.333-13.333-0.667-26.667-1-40-1.451-8.4505-6.451-13.117-15-14-6.601 0.6332-11.268 3.9665-14 10-1.794 11.795-1.961 23.628-0.5 35.5 1.354 9.807-2.646 13.307-12 10.5-0.692-0.525-1.192-1.192-1.5-2-1.372-20.651-1.705-41.318-1-62 1.025-2.187 2.525-3.8536 4.5-5z" fill="#fefffe" opacity=".93"/>
<path d="m246.5 52.5c27.276-2.2191 40.11 10.114 38.5 37-0.903 1.2014-2.069 2.0348-3.5 2.5-20.664 0.5-41.331 0.6666-62 0.5-1.179-20.446 7.821-33.78 27-40zm6 11c11.197 0.6995 17.864 6.5328 20 17.5-13 0.6667-26 0.6667-39 0 2.741-9.9135 9.074-15.747 19-17.5z" fill="#fefffe" opacity=".92"/>
<path d="m232.5 103.5c0.484 3.288-0.516 5.955-3 8-3.535 0.368-6.535-0.632-9-3-0.832-7.666 2.502-10.499 10-8.5 1.323 0.816 1.989 1.983 2 3.5z" fill="#289da9" opacity=".955"/>
<path d="m282.5 110.5c-1.617 0.538-3.284 0.871-5 1-3.509-1.879-4.842-4.879-4-9 0.786-2.235 2.452-3.2351 5-3 4.151-0.0944 6.484 1.906 7 6-0.457 2.098-1.457 3.764-3 5z" fill="#60cb6f" opacity=".932"/>
<path d="m272.5 103.5v16c-0.79 0.901-1.79 1.568-3 2 0.319-4.863-0.014-9.53-1-14 1-1.667 2.333-3 4-4z" fill="#13bc7e" opacity=".89"/>
<path d="m232.5 103.5c1.333 0.667 2.333 1.667 3 3v15c-2.532-1.096-4.865-2.429-7-4 0.841-1.879 1.175-3.879 1-6 2.484-2.045 3.484-4.712 3-8z" fill="#34c5dc" opacity=".928"/>
<path d="m235.5 106.5c1.868 0.763 3.535 1.763 5 3-0.985 4.134-1.318 8.468-1 13-1.459 0.067-2.792-0.266-4-1v-15z" fill="#2fc4d2" opacity=".893"/>
<path d="m268.5 107.5c0.986 4.47 1.319 9.137 1 14-1.542 0.801-3.208 1.134-5 1v-13c1.014-1.174 2.347-1.84 4-2z" fill="#16bd8a" opacity=".935"/>
<path d="m240.5 109.5c0.992-0.172 1.658 0.162 2 1v13c-1.109-0.057-2.109-0.39-3-1-0.318-4.532 0.015-8.866 1-13z" fill="#2cc3cb" opacity=".951"/>
<path d="m264.5 109.5v13c-0.342 0.838-1.008 1.172-2 1v-13c0.342-0.838 1.008-1.172 2-1z" fill="#19bd92" opacity=".909"/>
<path d="m273.5 102.5c-0.842 4.121 0.491 7.121 4 9-0.268 1.599 0.066 2.932 1 4-1.647 1.826-3.647 3.16-6 4v-16c0-0.667 0.333-1 1-1z" fill="#17bc74" opacity=".956"/>
<path d="m220.5 108.5c2.465 2.368 5.465 3.368 9 3 0.175 2.121-0.159 4.121-1 6-3.381-2.38-6.047-5.38-8-9z" fill="#3ac5e6" opacity=".688"/>
<path d="m242.5 110.5h3v13h-3v-13z" fill="#29c3c4" opacity=".963"/>
<path d="m245.5 110.5c0.891 0.61 1.891 0.943 3 1v13c-1.291 0.237-2.291-0.096-3-1v-13z" fill="#27c2bd" opacity=".912"/>
<path d="m259.5 110.5h3v13h-3v-13z" fill="#1abe99" opacity=".958"/>
<path d="m248.5 111.5h5v13h-5v-13z" fill="#22c1b2" opacity=".928"/>
<path d="m259.5 110.5v13c-1.765 0.961-3.765 1.295-6 1v-13c2.121 0.175 4.121-0.159 6-1z" fill="#1ec0a5" opacity=".942"/>
<path d="m282.5 110.5c-0.58 2.249-1.913 3.915-4 5-0.934-1.068-1.268-2.401-1-4 1.716-0.129 3.383-0.462 5-1z" fill="#1b6" opacity=".835"/>
</svg>
